<svg width="512" height="84" viewBox="0 0 512 84" fill="none" xmlns="http://www.w3.org/2000/svg">
<path d="M0.960001 84V-5.72205e-06H42C52.56 -5.72205e-06 60.48 1.99999 65.76 6C71.12 10 73.8 15.28 73.8 21.84C73.8 26.24 72.72 30.08 70.56 33.36C68.4 36.56 65.44 39.04 61.68 40.8C57.92 42.56 53.6 43.44 48.72 43.44L51 38.52C56.28 38.52 60.96 39.4 65.04 41.16C69.12 42.84 72.28 45.36 74.52 48.72C76.84 52.08 78 56.2 78 61.08C78 68.28 75.16 73.92 69.48 78C63.8 82 55.44 84 44.4 84H0.960001ZM20.28 69.36H42.96C48 69.36 51.8 68.56 54.36 66.96C57 65.28 58.32 62.64 58.32 59.04C58.32 55.52 57 52.92 54.36 51.24C51.8 49.48 48 48.6 42.96 48.6H18.84V34.44H39.6C44.32 34.44 47.92 33.64 50.4 32.04C52.96 30.36 54.24 27.84 54.24 24.48C54.24 21.2 52.96 18.76 50.4 17.16C47.92 15.48 44.32 14.64 39.6 14.64H20.28V69.36ZM110.598 33.84H151.038V48.96H110.598V33.84ZM112.038 68.4H157.758V84H92.7178V-5.72205e-06H156.198V15.6H112.038V68.4ZM190.626 84V15.84H163.746V-5.72205e-06H236.946V15.84H210.066V84H190.626ZM265.405 37.8H305.725V53.4H265.405V37.8ZM266.845 84H247.405V-5.72205e-06H310.885V15.6H266.845V84ZM324.046 84V-5.72205e-06H343.486V68.16H385.606V84H324.046ZM396.468 84V-5.72205e-06H415.908V84H396.468ZM426.243 84L462.363 34.2V48.36L427.803 -5.72205e-06H449.883L473.763 33.72L464.523 33.84L488.043 -5.72205e-06H509.163L474.843 47.52V33.6L511.203 84H488.763L464.043 48.36H472.923L448.563 84H426.243Z" fill="#7D0323"/>
</svg>
